<svg xmlns="http://www.w3.org/2000/svg" xmlns:xlink="http://www.w3.org/1999/xlink" width="200" zoomAndPan="magnify" viewBox="0 0 150 74.999997" height="100" preserveAspectRatio="xMidYMid meet" version="1.0"><defs><g/></defs><g fill="#000000" fill-opacity="1"><g transform="translate(57.278807, 42.491871)"><g><path d="M 5.308594 -22.320312 C 6.683594 -16.730469 12.367188 -17.011719 15.117188 -13.886719 L 15.117188 -17.628906 C 8.625 -17.628906 5.308594 -18.957031 5.308594 -25.449219 L 5.308594 -33.125 L 9.195312 -33.125 C 14.976562 -33.125 17.441406 -32.886719 20.804688 -29.667969 L 20.804688 -33.457031 L 1.660156 -33.457031 L 1.660156 0 L 20.519531 0 L 21.609375 -7.015625 C 19.902344 -2.226562 17.441406 -0.378906 13.316406 -0.378906 L 5.308594 -0.378906 Z M 5.308594 -22.320312 "/></g></g></g><g fill="#000000" fill-opacity="1"><g transform="translate(68.368808, 55.593579)"><g><path d="M 15.6875 -18.433594 C 19.523438 -19.242188 22.652344 -21.609375 22.652344 -25.875 C 22.652344 -31.324219 16.964844 -33.457031 9.855469 -33.457031 L 1.660156 -33.457031 L 1.660156 0 L 12.890625 0 C 20.1875 -0.046875 25.875 -1.660156 25.875 -9.289062 C 25.875 -16.019531 21.65625 -18.007812 15.6875 -18.433594 Z M 22.179688 -9.289062 C 22.179688 -0.757812 16.777344 -0.378906 12.511719 -0.378906 L 5.402344 -0.378906 L 5.402344 -26.394531 C 5.78125 -24.546875 6.351562 -22.9375 7.203125 -21.65625 C 8.578125 -19.476562 10.664062 -18.199219 12.890625 -18.199219 C 17.011719 -18.199219 22.179688 -17.769531 22.179688 -9.289062 Z M 18.957031 -25.875 C 18.957031 -20.710938 16.066406 -18.578125 12.890625 -18.578125 C 10.757812 -18.578125 8.910156 -19.761719 7.582031 -21.894531 C 6.207031 -23.882812 5.402344 -26.726562 5.402344 -29.996094 L 5.402344 -33.125 L 9.855469 -33.125 C 14.40625 -33.125 18.957031 -31.277344 18.957031 -25.875 Z M 18.957031 -25.875 "/></g></g></g></svg>