<svg xmlns="http://www.w3.org/2000/svg" xmlns:xlink="http://www.w3.org/1999/xlink" width="200" zoomAndPan="magnify" viewBox="0 0 150 74.999997" height="100" preserveAspectRatio="xMidYMid meet" version="1.0"><defs><g/></defs><g fill="#ece6db" fill-opacity="1"><g transform="translate(57.276648, 42.19914)"><g><path d="M 5.308594 -22.316406 C 6.679688 -16.726562 12.367188 -17.011719 15.117188 -13.882812 L 15.117188 -17.628906 C 8.625 -17.628906 5.308594 -18.953125 5.308594 -25.445312 L 5.308594 -33.121094 L 9.191406 -33.121094 C 14.972656 -33.121094 17.4375 -32.886719 20.800781 -29.664062 L 20.800781 -33.453125 L 1.660156 -33.453125 L 1.660156 0 L 20.519531 0 L 21.609375 -7.011719 C 19.902344 -2.226562 17.4375 -0.378906 13.316406 -0.378906 L 5.308594 -0.378906 Z M 5.308594 -22.316406 "/></g></g></g><g fill="#ece6db" fill-opacity="1"><g transform="translate(68.367829, 55.30085)"><g><path d="M 15.683594 -18.433594 C 19.523438 -19.238281 22.648438 -21.609375 22.648438 -25.871094 C 22.648438 -31.320312 16.964844 -33.453125 9.855469 -33.453125 L 1.660156 -33.453125 L 1.660156 0 L 12.890625 0 C 20.1875 -0.046875 25.871094 -1.660156 25.871094 -9.289062 C 25.871094 -16.015625 21.65625 -18.007812 15.683594 -18.433594 Z M 22.175781 -9.289062 C 22.175781 -0.757812 16.773438 -0.378906 12.507812 -0.378906 L 5.402344 -0.378906 L 5.402344 -26.394531 C 5.78125 -24.546875 6.347656 -22.933594 7.203125 -21.65625 C 8.578125 -19.476562 10.660156 -18.195312 12.890625 -18.195312 C 17.011719 -18.195312 22.175781 -17.769531 22.175781 -9.289062 Z M 18.953125 -25.871094 C 18.953125 -20.707031 16.0625 -18.574219 12.890625 -18.574219 C 10.757812 -18.574219 8.910156 -19.757812 7.582031 -21.890625 C 6.207031 -23.882812 5.402344 -26.726562 5.402344 -29.996094 L 5.402344 -33.121094 L 9.855469 -33.121094 C 14.40625 -33.121094 18.953125 -31.273438 18.953125 -25.871094 Z M 18.953125 -25.871094 "/></g></g></g></svg>